<svg xmlns="http://www.w3.org/2000/svg" width="900" height="260" viewBox="0 0 900 260" role="img" aria-label="Usamasg - Aspiring Cybersecurity Enthusiast">
  <defs>
    <linearGradient id="bg" x1="0" y1="0" x2="1" y2="1">
      <stop offset="0" stop-color="#12081f"/>
      <stop offset="0.55" stop-color="#2d1460"/>
      <stop offset="1" stop-color="#0d1117"/>
    </linearGradient>
    <linearGradient id="namegg" x1="0" y1="0" x2="1" y2="0">
      <stop offset="0" stop-color="#c4a5fc"/>
      <stop offset="1" stop-color="#7c3aed"/>
    </linearGradient>
    <radialGradient id="glow" cx="0.5" cy="0.5" r="0.5">
      <stop offset="0" stop-color="#8a2be2" stop-opacity="0.35"/>
      <stop offset="1" stop-color="#8a2be2" stop-opacity="0"/>
    </radialGradient>
  </defs>

  <rect width="900" height="260" fill="url(#bg)"/>
  <circle cx="450" cy="130" r="190" fill="url(#glow)"/>

  <g stroke="#3b1f6e" stroke-width="0.6" opacity="0.3">
    <path d="M 0 65 H 900 M 0 130 H 900 M 0 195 H 900"/>
    <path d="M 150 0 V 260 M 300 0 V 260 M 450 0 V 260 M 600 0 V 260 M 750 0 V 260"/>
  </g>

  <rect y="200" width="900" height="2" fill="#7c3aed" opacity="0.55"/>

  <g transform="translate(140,60)" fill="none" stroke="#9b59f9" stroke-width="6">
    <rect x="0" y="24" width="70" height="58" rx="8"/>
    <path d="M 14 24 V 16 a 21 21 0 0 1 42 0 V 24"/>
    <circle cx="35" cy="47" r="7" fill="#9b59f9" stroke="none"/>
  </g>

  <text x="250" y="118" font-family="'JetBrains Mono','Fira Code',Consolas,monospace" font-size="54" font-weight="900" fill="url(#namegg)" letter-spacing="3">Usamasg</text>
  <text x="250" y="150" font-family="'Fira Code',Consolas,monospace" font-size="15" letter-spacing="5" fill="#b083f0">ASPIRING CYBERSECURITY ENTHUSIAST</text>

  <g font-family="'Fira Code',Consolas,monospace" font-size="14" fill="#8f8fb0">
    <text x="250" y="186">$ whoami</text>
    <text x="250" y="208" fill="#c4a5fc">&gt; Usamasg</text>
  </g>

  <rect x="324" y="198" width="9" height="16" fill="#a084dc">
    <animate attributeName="opacity" values="1;0;1" dur="1s" repeatCount="indefinite"/>
  </rect>
</svg>